<svg xmlns="http://www.w3.org/2000/svg" width="240" height="40" viewBox="0 0 240 40" role="img" aria-label="Bark &amp; Chain" xmlns:c2pa="http://c2pa.org/manifest"><metadata><c2pa:manifest>AAAWgmp1bWIAAAAeanVtZGMycGEAEQAQgAAAqgA4m3EDYzJwYQAAABZcanVtYgAAAEdqdW1kYzJtYQARABCAAACqADibcQN1cm46YzJwYTo4NmMwNzYyNi0wYzU3LTRiYzYtOTEwNy1hN2U2OWM4NDg0NTEAAAADl2p1bWIAAAApanVtZGMyYXMAEQAQgAAAqgA4m3EDYzJwYS5hc3NlcnRpb25zAAAAALxqdW1iAAAARGp1bWRjYm9yABEAEIAAAKoAOJtxE2MycGEuaW5ncmVkaWVudC52MwAAAAAYYzJzaHxhTp1h9UaZMrecyTjpUqwAAABwY2JvcqNpZGM6Zm9ybWF0bWltYWdlL3N2Zyt4bWxqaW5zdGFuY2VJRHgseG1wOmlpZDpiMjU3NzkzZi1iZGQ2LTQzMGEtYWM0NS01MmU4ZjY4ZWI1MGJscmVsYXRpb25zaGlwaHBhcmVudE9mAAAB4mp1bWIAAABBanVtZGNib3IAEQAQgAAAqgA4m3ETYzJwYS5hY3Rpb25zLnYyAAAAABhjMnNojq/fXJfNOYM1i/NURgHVHwAAAZljYm9yomdhY3Rpb25zgqJmYWN0aW9ua2MycGEub3BlbmVkanBhcmFtZXRlcnOha2luZ3JlZGllbnRzgaJjdXJseC1zZWxmI2p1bWJmPWMycGEuYXNzZXJ0aW9ucy9jMnBhLmluZ3JlZGllbnQudjNkaGFzaFggeUyysCk1aeKvoZCMhCADT7Yw0m+qZD5a3XEse43j/tmkZmFjdGlvbngdY29tLmFudGhyb3BpYy5jbGF1ZGUucHJvdmlkZWRqcGFyYW1ldGVyc6F4H2NvbS5hbnRocm9waWMub3JpZ2luLWNvbmZpZGVuY2VndW5rbm93bmtkZXNjcmlwdGlvbnhmQ2xhdWRlIHByb3ZpZGVkIHRoaXMgZmlsZSBhdCB0aGUgcmVxdWVzdCBvZiBhIHVzZXIgYW5kIG1heSBoYXZlIGNyZWF0ZWQgb3IgbW9kaWZpZWQgdGhlIGZpbGUgY29udGVudHMubXNvZnR3YXJlQWdlbnShZG5hbWVmQ2xhdWRlcmFsbEFjdGlvbnNJbmNsdWRlZPUAAADIanVtYgAAAEBqdW1kY2JvcgARABCAAACqADibcRNjMnBhLmhhc2guZGF0YQAAAAAYYzJzaHHLP73rIHnD4OE9Rj0OuIYAAACAY2JvcqVjYWxnZnNoYTI1NmNwYWRNAAAAAAAAAAAAAAAAAGRoYXNoWCBSPKZVQLX7ocYCnOrEbESdI8eVuTq8Dx8qTUsyz54RH2RuYW1lbmp1bWJmIG1hbmlmZXN0amV4Y2x1c2lvbnOBomVzdGFydBi9Zmxlbmd0aBkeBAAAAj5qdW1iAAAAJ2p1bWRjMmNsABEAEIAAAKoAOJtxA2MycGEuY2xhaW0udjIAAAACD2Nib3KlY2FsZ2ZzaGEyNTZpc2lnbmF0dXJleE1zZWxmI2p1bWJmPS9jMnBhL3VybjpjMnBhOjg2YzA3NjI2LTBjNTctNGJjNi05MTA3LWE3ZTY5Yzg0ODQ1MS9jMnBhLnNpZ25hdHVyZWppbnN0YW5jZUlEeCx4bXA6aWlkOjNhNDlmN2FhLWRmMDQtNGNhNy04N2ZjLWExYzkxODY2NjhmMXJjcmVhdGVkX2Fzc2VydGlvbnODomN1cmx4LXNlbGYjanVtYmY9YzJwYS5hc3NlcnRpb25zL2MycGEuaW5ncmVkaWVudC52M2RoYXNoWCB5TLKwKTVp4q+hkIyEIANPtjDSb6pkPlrdcSx7jeP+2aJjdXJseCpzZWxmI2p1bWJmPWMycGEuYXNzZXJ0aW9ucy9jMnBhLmFjdGlvbnMudjJkaGFzaFggAzuyNg2QH/3Ertlu419F5r8QKKE+PXOTEw0y+4XJ1WOiY3VybHgpc2VsZiNqdW1iZj1jMnBhLmFzc2VydGlvbnMvYzJwYS5oYXNoLmRhdGFkaGFzaFggh4WZbWmtHD38cz4B1GDwQNjg0SdZB664dfpKYodz9Bl0Y2xhaW1fZ2VuZXJhdG9yX2luZm+jZG5hbWVvQW50aHJvcGljIEZpbGVzZ3ZlcnNpb25lMS4wLjBrc3BlY1ZlcnNpb25lMi40LjAAABA4anVtYgAAAChqdW1kYzJjcwARABCAAACqADibcQNjMnBhLnNpZ25hdHVyZQAAABAIY2JvctKEWQISogEmGCFZAgowggIGMIIBjaADAgECAhRA5aAK7sI50L64g/oGQgU9Z1UTADAKBggqhkjOPQQDAzBJMRcwFQYDVQQKEw5BbnRocm9waWMsIFBCQzEuMCwGA1UEAxMlQW50aHJvcGljIENvbnRlbnQgQ3JlZGVudGlhbHMgUm9vdCBDQTAeFw0yNjA4MDcxODQzNTZaFw0yODA4MDYxOTQzNTZaMEQxFzAVBgNVBAoTDkFudGhyb3BpYywgUEJDMSkwJwYDVQQDEyBBbnRocm9waWMgQ2xhdWRlIENvbnRlbnQgU2lnbmluZzBZMBMGByqGSM49AgEGCCqGSM49AwEHA0IABJh6CmvLUBgFFNU0vUKlOVtE6djd17L5SuwX0LemFisBM3dkd/3cyjxFA3Qo5S46fX0/ihY0VZ7mfb9KF703t5OjWDBWMA4GA1UdDwEB/wQEAwIHgDAVBgNVHSUEDjAMBgorBgEEAYPoXgIBMAwGA1UdEwEB/wQCMAAwHwYDVR0jBBgwFoAUzlHiBIFOZFsj+OPEz5o+nMHXXMIwCgYIKoZIzj0EAwMDZwAwZAIwMXMdFJ4BetLLVY7ORuE9noqbbAZOZn/aArXyTwFAZfKrPzxF2vPoJNf1+UCdg1XGAjBwX1zd9WGqYkqmL5SFqw1QySjr1zJfpJM9+1rdDwSPLMOPOjKuiXjoU/pUUeG9RwmhY3BhZFkNngAAAAAAAAAAAAAAAAAAAAAAAAAAAAAAAAAAAAAAAAAAAAAAAAAAAAAAAAAAAAAAAAAAAAAAAAAAAAAAAAAAAAAAAAAAAAAAAAAAAAAAAAAAAAAAAAAAAAAAAAAAAAAAAAAAAAAAAAAAAAAAAAAAAAAAAAAAAAAAAAAAAAAAAAAAAAAAAAAAAAAAAAAAAAAAAAAAAAAAAAAAAAAAAAAAAAAAAAAAAAAAAAAAAAAAAAAAAAAAAAAAAAAAAAAAAAAAAAAAAAAAAAAAAAAAAAAAAAAAAAAAAAAAAAAAAAAAAAAAAAAAAAAAAAAAAAAAAAAAAAAAAAAAAAAAAAAAAAAAAAAAAAAAAAAAAAAAAAAAAAAAAAAAAAAAAAAAAAAAAAAAAAAAAAAAAAAAAAAAAAAAAAAAAAAAAAAAAAAAAAAAAAAAAAAAAAAAAAAAAAAAAAAAAAAAAAAAAAAAAAAAAAAAAAAAAAAAAAAAAAAAAAAAAAAAAAAAAAAAAAAAAAAAAAAAAAAAAAAAAAAAAAAAAAAAAAAAAAAAAAAAAAAAAAAAAAAAAAAAAAAAAAAAAAAAAAAAAAAAAAAAAAAAAAAAAAAAAAAAAAAAAAAAAAAAAAAAAAAAAAAAAAAAAAAAAAAAAAAAAAAAAAAAAAAAAAAAAAAAAAAAAAAAAAAAAAAAAAAAAAAAAAAAAAAAAAAAAAAAAAAAAAAAAAAAAAAAAAAAAAAAAAAAAAAAAAAAAAAAAAAAAAAAAAAAAAAAAAAAAAAAAAAAAAAAAAAAAAAAAAAAAAAAAAAAAAAAAAAAAAAAAAAAAAAAAAAAAAAAAAAAAAAAAAAAAAAAAAAAAAAAAAAAAAAAAAAAAAAAAAAAAAAAAAAAAAAAAAAAAAAAAAAAAAAAAAAAAAAAAAAAAAAAAAAAAAAAAAAAAAAAAAAAAAAAAAAAAAAAAAAAAAAAAAAAAAAAAAAAAAAAAAAAAAAAAAAAAAAAAAAAAAAAAAAAAAAAAAAAAAAAAAAAAAAAAAAAAAAAAAAAAAAAAAAAAAAAAAAAAAAAAAAAAAAAAAAAAAAAAAAAAAAAAAAAAAAAAAAAAAAAAAAAAAAAAAAAAAAAAAAAAAAAAAAAAAAAAAAAAAAAAAAAAAAAAAAAAAAAAAAAAAAAAAAAAAAAAAAAAAAAAAAAAAAAAAAAAAAAAAAAAAAAAAAAAAAAAAAAAAAAAAAAAAAAAAAAAAAAAAAAAAAAAAAAAAAAAAAAAAAAAAAAAAAAAAAAAAAAAAAAAAAAAAAAAAAAAAAAAAAAAAAAAAAAAAAAAAAAAAAAAAAAAAAAAAAAAAAAAAAAAAAAAAAAAAAAAAAAAAAAAAAAAAAAAAAAAAAAAAAAAAAAAAAAAAAAAAAAAAAAAAAAAAAAAAAAAAAAAAAAAAAAAAAAAAAAAAAAAAAAAAAAAAAAAAAAAAAAAAAAAAAAAAAAAAAAAAAAAAAAAAAAAAAAAAAAAAAAAAAAAAAAAAAAAAAAAAAAAAAAAAAAAAAAAAAAAAAAAAAAAAAAAAAAAAAAAAAAAAAAAAAAAAAAAAAAAAAAAAAAAAAAAAAAAAAAAAAAAAAAAAAAAAAAAAAAAAAAAAAAAAAAAAAAAAAAAAAAAAAAAAAAAAAAAAAAAAAAAAAAAAAAAAAAAAAAAAAAAAAAAAAAAAAAAAAAAAAAAAAAAAAAAAAAAAAAAAAAAAAAAAAAAAAAAAAAAAAAAAAAAAAAAAAAAAAAAAAAAAAAAAAAAAAAAAAAAAAAAAAAAAAAAAAAAAAAAAAAAAAAAAAAAAAAAAAAAAAAAAAAAAAAAAAAAAAAAAAAAAAAAAAAAAAAAAAAAAAAAAAAAAAAAAAAAAAAAAAAAAAAAAAAAAAAAAAAAAAAAAAAAAAAAAAAAAAAAAAAAAAAAAAAAAAAAAAAAAAAAAAAAAAAAAAAAAAAAAAAAAAAAAAAAAAAAAAAAAAAAAAAAAAAAAAAAAAAAAAAAAAAAAAAAAAAAAAAAAAAAAAAAAAAAAAAAAAAAAAAAAAAAAAAAAAAAAAAAAAAAAAAAAAAAAAAAAAAAAAAAAAAAAAAAAAAAAAAAAAAAAAAAAAAAAAAAAAAAAAAAAAAAAAAAAAAAAAAAAAAAAAAAAAAAAAAAAAAAAAAAAAAAAAAAAAAAAAAAAAAAAAAAAAAAAAAAAAAAAAAAAAAAAAAAAAAAAAAAAAAAAAAAAAAAAAAAAAAAAAAAAAAAAAAAAAAAAAAAAAAAAAAAAAAAAAAAAAAAAAAAAAAAAAAAAAAAAAAAAAAAAAAAAAAAAAAAAAAAAAAAAAAAAAAAAAAAAAAAAAAAAAAAAAAAAAAAAAAAAAAAAAAAAAAAAAAAAAAAAAAAAAAAAAAAAAAAAAAAAAAAAAAAAAAAAAAAAAAAAAAAAAAAAAAAAAAAAAAAAAAAAAAAAAAAAAAAAAAAAAAAAAAAAAAAAAAAAAAAAAAAAAAAAAAAAAAAAAAAAAAAAAAAAAAAAAAAAAAAAAAAAAAAAAAAAAAAAAAAAAAAAAAAAAAAAAAAAAAAAAAAAAAAAAAAAAAAAAAAAAAAAAAAAAAAAAAAAAAAAAAAAAAAAAAAAAAAAAAAAAAAAAAAAAAAAAAAAAAAAAAAAAAAAAAAAAAAAAAAAAAAAAAAAAAAAAAAAAAAAAAAAAAAAAAAAAAAAAAAAAAAAAAAAAAAAAAAAAAAAAAAAAAAAAAAAAAAAAAAAAAAAAAAAAAAAAAAAAAAAAAAAAAAAAAAAAAAAAAAAAAAAAAAAAAAAAAAAAAAAAAAAAAAAAAAAAAAAAAAAAAAAAAAAAAAAAAAAAAAAAAAAAAAAAAAAAAAAAAAAAAAAAAAAAAAAAAAAAAAAAAAAAAAAAAAAAAAAAAAAAAAAAAAAAAAAAAAAAAAAAAAAAAAAAAAAAAAAAAAAAAAAAAAAAAAAAAAAAAAAAAAAAAAAAAAAAAAAAAAAAAAAAAAAAAAAAAAAAAAAAAAAAAAAAAAAAAAAAAAAAAAAAAAAAAAAAAAAAAAAAAAAAAAAAAAAAAAAAAAAAAAAAAAAAAAAAAAAAAAAAAAAAAAAAAAAAAAAAAAAAAAAAAAAAAAAAAAAAAAAAAAAAAAAAAAAAAAAAAAAAAAAAAAAAAAAAAAAAAAAAAAAAAAAAAAAAAAAAAAAAAAAAAAAAAAAAAAAAAAAAAAAAAAAAAAAAAAAAAAAAAAAAAAAAAAAAAAAAAAAAAAAAAAAAAAAAAAAAAAAAAAAAAAAAAAAAAAAAAAAAAAAAAAAAAAAAAAAAAAAAAAAAAAAAAAAAAAAAAAAAAAAAAAAAAAAAAAAAAAAAAAAAAAAAAAAAAAAAAAAAAAAAAAAAAAAAAAAAAAAAAAAAAAAAAAAAAAAAAAAAAAAAAAAAAAAAAAAAAAAAAAAAAAAAAAAAAAAAAAAAAAAAAAAAAAAAAAAAAAAAAAAAAAAAAAAAAAAAAAAAAAAAAAAAAAAAAAAAAAAAAAAAAAAAAAAAAAAAAAAAAAAAAAAAAAAAAAAAAAAAAAAAAAAAAAAAAAAAAAAAAAAAAAAAAAAAAAAAAAAAAAAAAAAAAAAAAAAAAAAAAAAAAAAAAAAAAAAAAAAAAAAAAAAAAAAAAAAAAAAAAAAAAAAAAAAAAAAAAAAAAAAAAAAAAAAAAAAAAAAAAAAAAAAAAAAAAAAAAAAAAAAAAAAAAAAAAAAAAAAAAAAAAAAAAAAAAAAAAAAAAAAAAAAAAAAAAAAAAAAAAAAAAAAAAAAAAAAAAAAAAAAAAAAAAAAAAAAAAAAAAAAAAAAAAAAAAAAAAAAAAAAAAAAAAAAAAAAAAAAAAAAAAAAAAAAAAAAAAAAAAAAAAAAAAAAAAAAAAAAAAAAAAAAAAAAAAAAAAAAAAAAAAAAAAAAAAAAAAAAAAAAAAAAAAAAAAAAAAAAAAAAAAAAAAAAAAAAAAAAAAAAAAAAAAAAAAAAAAAAAAAAAAAAAAAAAAAAAAAAAAAAAAAAAAAAAAAAAAAAAAAAAAAAAAAAAAAAAAAAAAAAAAAAAAAAAAAAAAAAAAAAAAAAAAAAAAAAAAAAAAAAAAAAAAAAAAAAAAAAAAAAAAAAAAAAAAAAAAAAAAAAAAAAAAAAAAAAAAAAAAAAAAAAAAAAAAAAAAAAAAAAAAAAAAAAAAAAAAAAAAAAAAAAAAAAAAAAAAAAAAAAAAAAAAAAAAAAAAAAAAAAAAAAAAAAAAAAAAAAAAAAAAAAAAAAAAAAAAAAAAAAAAAAAAAAAAAAAAAAAAAAAAAAAAAAAAAAAAAAAAAAAAAAAAAAAAAAAAAAAAAAAAAAAAAAAAAAAAAAAAAAAAAAAAAAAAAAAAAAAAAAAAAAAAAAAAAAAAAAAAAAAAAAAAAAAAAAAAAAAAAAAAAAAAAAAAAAAAAAAAAAAAAAAAAAAAAAAAAAAAAAAAAAAAAAAAAAAAAAAAAAAAAAAAAAAAAAAAAAAAAAAAAAAAAAAAAAAAAAAAAAAAAAAAAAAAAAAAAAAAAAAAAAAAAAAAAAAAAAAAAAAAAAAAAAAAAAAAAAAAAAAAAAAAAAAAAAAAAAAAAAAAAAAAAAAAAAAAAAAAAAAAAAAAAAAAAAAAAAAAAAAAAAAAAAAAAAAAAAAAAAAAAAAAAAAAAAAAAAAAAAAAAAAAAPZYQCKXXmLAhyqZbDOeR/06qHOWB96PwhE8wgKFjv5zLqtrVHU30Z6skMNZ5lcv6nNPlLMgtgqiJ+S2HirXgACcJJo=</c2pa:manifest></metadata><title>Bark &amp; Chain</title><rect x="0.75" y="0.75" width="238.5" height="38.5" rx="4" fill="#3b6e35" stroke="#7bbf4a" stroke-width="1.5"/><path d="M211.43,9.69 L211.14,10.04 L211.14,10.81 L212.06,12.43 L212.20,13.06 L212.20,14.82 L211.99,17.71 L211.71,18.63 L211.14,19.75 L211.14,20.74 L212.06,22.50 L212.20,23.63 L212.20,24.68 L211.99,27.78 L211.71,28.70 L211.14,29.82 L211.14,30.46 L211.50,30.74 L212.20,30.74 L212.90,30.53 L213.61,30.10 L214.10,29.96 L214.66,30.03 L215.65,30.60 L216.21,30.74 L216.78,30.74 L217.20,30.46 L217.20,29.75 L216.71,28.84 L216.35,27.36 L216.07,23.56 L216.14,21.80 L216.49,21.23 L216.78,21.09 L217.13,21.09 L217.76,21.65 L220.51,25.53 L221.00,26.65 L221.07,27.01 L221.00,27.71 L220.58,28.84 L220.09,29.75 L220.09,30.39 L220.58,30.74 L221.21,30.74 L221.71,30.60 L222.41,30.17 L223.18,30.03 L224.73,30.60 L225.79,30.53 L225.93,30.39 L225.93,29.54 L225.44,28.48 L225.08,27.15 L224.94,23.63 L225.16,22.29 L225.86,21.02 L226.00,20.53 L225.93,19.68 L225.16,17.50 L225.01,16.16 L225.01,12.99 L225.23,12.15 L225.93,10.81 L225.86,9.90 L225.51,9.69 L224.66,9.69 L223.54,10.11 L222.83,10.11 L221.56,9.61 L220.65,9.61 L220.44,9.69 L220.09,10.04 L220.09,10.88 L221.00,12.64 L221.21,13.42 L221.14,16.09 L220.93,18.13 L220.72,18.77 L220.37,19.05 L220.09,19.05 L219.45,18.56 L218.54,17.36 L216.35,13.98 L216.21,13.56 L216.21,12.57 L216.42,11.94 L217.06,10.81 L216.99,9.90 L216.49,9.61 L215.72,9.61 L214.88,10.04 L214.24,10.18 L212.55,9.61ZM199.60,9.61 L199.17,9.83 L199.03,10.04 L198.96,10.67 L199.88,12.43 L200.09,13.56 L200.09,14.75 L199.88,17.15 L199.60,18.42 L198.96,19.82 L198.96,20.60 L199.74,22.08 L199.95,22.85 L200.09,23.98 L200.09,25.81 L199.67,28.34 L198.96,29.75 L198.96,30.24 L199.17,30.53 L199.46,30.67 L200.44,30.67 L201.71,30.03 L202.34,30.03 L203.47,30.60 L204.53,30.67 L204.95,30.31 L204.95,29.68 L204.45,28.48 L204.17,27.08 L204.03,25.39 L204.03,23.13 L204.31,21.94 L204.95,20.53 L204.95,19.89 L204.38,18.35 L204.24,17.64 L203.96,13.84 L204.24,12.15 L204.95,10.88 L204.95,10.18 L204.45,9.69 L203.47,9.69 L202.55,10.04 L202.06,10.11 L200.37,9.61ZM72.93,9.76 L72.51,10.25 L72.51,10.74 L73.28,11.87 L73.64,12.71 L73.85,13.77 L73.85,15.88 L73.57,17.50 L72.65,19.54 L72.65,20.25 L73.64,22.22 L73.78,23.20 L73.78,26.44 L73.21,28.77 L72.44,30.31 L72.44,30.95 L72.58,31.23 L72.86,31.44 L73.64,31.44 L75.47,30.46 L75.82,30.39 L76.52,30.53 L77.44,31.09 L78.28,31.44 L78.85,31.44 L79.20,31.16 L79.27,30.53 L78.56,29.12 L78.07,27.57 L77.79,24.82 L77.79,23.06 L78.00,22.15 L78.49,21.58 L79.27,21.30 L80.25,21.37 L80.89,21.73 L81.45,22.50 L81.59,23.49 L81.59,25.25 L81.73,26.02 L82.86,29.68 L83.28,30.46 L83.99,31.09 L84.55,31.09 L85.46,30.53 L86.17,30.46 L87.79,31.51 L88.63,31.51 L88.77,31.37 L88.77,30.67 L87.58,29.26 L86.59,27.29 L86.38,26.23 L86.24,24.19 L85.96,22.99 L85.54,22.22 L84.34,21.16 L83.99,20.39 L84.06,20.04 L85.32,18.63 L85.96,17.43 L86.10,16.80 L86.24,14.33 L86.52,13.21 L87.22,11.94 L88.56,10.60 L88.63,9.90 L88.14,9.61 L87.22,9.69 L86.17,10.11 L85.46,10.11 L84.55,9.76 L83.92,9.76 L83.63,9.90 L83.14,10.39 L82.79,11.02 L82.51,12.22 L81.94,13.63 L81.73,14.54 L81.66,16.02 L81.24,17.92 L80.96,18.42 L80.54,18.77 L79.97,18.98 L79.27,18.98 L78.71,18.77 L78.28,18.35 L78.07,17.92 L77.79,15.60 L77.86,13.35 L78.14,12.36 L79.13,10.81 L79.06,9.97 L78.71,9.69 L77.65,9.69 L76.24,10.32 L75.61,10.32 L73.92,9.61 L73.28,9.61ZM37.66,9.61 L37.38,9.76 L37.02,10.25 L37.02,11.02 L37.31,12.01 L37.31,13.56 L37.16,14.33 L36.46,16.30 L36.11,17.85 L35.55,19.61 L35.33,20.04 L34.98,20.39 L33.57,20.67 L33.22,21.02 L33.29,22.57 L33.50,23.06 L34.21,23.84 L34.28,24.82 L34.14,25.39 L33.01,28.06 L31.88,29.82 L31.88,30.46 L32.17,30.67 L32.73,30.67 L34.35,30.03 L35.12,30.10 L35.83,30.53 L36.67,30.53 L36.95,30.31 L37.02,29.68 L36.53,28.48 L36.39,27.64 L36.39,26.37 L36.67,24.89 L37.09,23.63 L37.59,23.06 L38.36,22.78 L39.35,22.71 L39.84,22.78 L40.47,23.06 L40.97,23.63 L41.39,24.54 L41.81,26.94 L41.74,28.27 L41.39,29.40 L41.39,30.24 L41.60,30.53 L42.16,30.74 L42.80,30.74 L43.43,30.60 L44.35,30.10 L45.12,30.10 L46.04,30.53 L46.81,30.74 L47.51,30.67 L47.87,30.39 L47.87,29.82 L46.67,27.71 L46.04,26.16 L45.54,24.47 L45.40,23.41 L45.40,22.08 L45.68,20.95 L45.61,20.11 L44.28,17.78 L43.22,13.70 L43.22,12.22 L43.50,11.23 L43.43,10.32 L43.01,9.83 L42.66,9.69 L41.74,9.69 L40.68,10.11 L39.98,10.18 L38.50,9.61ZM38.85,17.99 L39.14,17.99 L39.56,18.35 L39.77,18.70 L39.98,19.54 L39.91,20.53 L39.77,20.81 L39.35,21.09 L38.64,21.02 L38.36,20.81 L38.08,20.25 L38.08,19.26 L38.43,18.35ZM183.54,9.61 L183.05,10.04 L182.98,10.25 L182.98,10.88 L183.40,12.15 L183.40,13.28 L182.49,16.09 L182.28,17.22 L181.57,19.75 L181.01,20.46 L180.73,20.60 L179.60,20.74 L179.39,20.88 L179.25,21.16 L179.32,22.50 L179.46,22.85 L180.23,23.70 L180.38,24.05 L180.38,24.54 L179.46,27.15 L178.83,28.48 L177.91,29.82 L177.91,30.46 L178.12,30.60 L178.97,30.60 L180.09,30.10 L181.01,30.17 L181.92,30.60 L182.63,30.60 L182.98,30.39 L183.05,29.75 L182.63,28.77 L182.42,27.71 L182.42,26.30 L182.91,24.12 L183.19,23.56 L183.75,22.99 L184.25,22.78 L185.37,22.71 L185.87,22.78 L186.29,22.99 L186.99,23.70 L187.35,24.54 L187.77,26.44 L187.70,28.27 L187.35,29.61 L187.35,30.17 L187.56,30.53 L187.98,30.74 L188.97,30.74 L190.37,30.10 L191.08,30.10 L192.63,30.67 L193.54,30.67 L193.82,30.39 L193.82,29.75 L192.49,27.36 L191.36,23.49 L191.36,22.29 L191.78,20.95 L191.78,20.46 L190.09,17.29 L189.60,15.60 L189.25,13.42 L189.25,12.36 L189.39,11.52 L189.32,10.25 L189.11,9.97 L188.54,9.69 L187.63,9.76 L186.43,10.25 L185.73,10.25 L184.53,9.61 L184.25,9.54ZM184.81,18.06 L185.16,18.06 L185.44,18.35 L186.01,19.82 L186.01,20.25 L185.87,20.60 L185.52,20.95 L185.30,21.02 L184.81,21.02 L184.46,20.88 L184.11,20.39 L184.18,19.33 L184.39,18.70ZM158.06,9.69 L157.70,10.04 L157.70,10.81 L158.69,12.92 L158.83,14.90 L158.69,16.80 L158.41,17.92 L157.77,19.54 L157.70,20.74 L158.41,22.22 L158.69,23.06 L158.83,24.05 L158.83,25.46 L158.69,26.79 L157.70,29.75 L157.70,30.39 L158.20,30.74 L158.97,30.74 L160.45,30.03 L161.36,30.10 L162.28,30.60 L162.77,30.74 L163.34,30.74 L163.83,30.39 L163.83,29.61 L163.13,28.06 L162.77,26.65 L162.63,24.75 L162.70,23.20 L163.20,22.08 L163.69,21.58 L164.39,21.30 L165.38,21.23 L165.94,21.30 L166.86,21.94 L167.28,22.64 L167.49,23.49 L167.49,24.75 L167.35,25.46 L167.21,27.50 L167.00,28.34 L166.43,29.61 L166.43,30.46 L166.86,30.74 L167.56,30.74 L169.18,30.03 L169.95,30.03 L171.36,30.67 L172.35,30.60 L172.56,30.39 L172.56,29.82 L171.72,27.57 L171.50,26.51 L171.43,23.56 L171.64,22.50 L172.56,20.67 L172.56,19.89 L171.64,17.15 L171.36,14.97 L171.36,13.77 L171.50,12.92 L171.72,12.29 L172.49,10.74 L172.49,10.18 L172.35,9.90 L171.86,9.61 L171.36,9.61 L170.03,10.18 L169.32,10.18 L167.91,9.61 L167.00,9.54 L166.36,10.04 L166.43,10.88 L167.14,12.15 L167.42,13.14 L167.49,14.82 L167.28,15.95 L167.21,17.29 L167.07,17.78 L166.36,18.56 L165.66,18.84 L164.96,18.91 L164.46,18.84 L163.83,18.56 L163.20,17.92 L162.98,17.50 L162.77,16.59 L162.70,13.06 L163.83,10.81 L163.83,10.04 L163.69,9.83 L163.41,9.61 L162.56,9.61 L161.22,10.11 L160.59,10.18 L159.04,9.54 L158.34,9.54ZM53.36,9.69 L53.01,10.18 L53.01,10.67 L53.92,12.57 L54.13,14.47 L53.85,17.22 L53.01,19.75 L53.01,20.53 L53.92,22.85 L53.99,26.02 L53.71,27.92 L53.08,29.61 L53.08,30.31 L53.50,30.67 L54.48,30.67 L55.75,30.10 L56.39,30.10 L57.65,30.67 L58.50,30.67 L58.99,30.31 L58.99,29.75 L58.43,28.27 L58.22,27.22 L57.93,22.50 L58.08,21.94 L58.43,21.44 L59.06,21.09 L59.77,21.02 L60.33,21.16 L60.68,21.37 L61.03,21.73 L61.24,22.15 L61.74,24.12 L61.74,25.74 L61.95,27.85 L62.30,28.91 L62.79,29.75 L63.57,30.53 L64.91,31.02 L66.03,30.95 L66.95,30.60 L67.23,30.24 L67.23,29.61 L66.67,28.48 L66.38,27.50 L65.68,22.43 L65.40,21.65 L64.62,20.74 L64.34,20.11 L64.34,19.68 L64.48,19.26 L65.33,17.71 L65.61,16.80 L66.17,15.53 L66.17,14.54 L65.68,13.21 L65.47,12.08 L65.19,11.52 L64.48,10.53 L64.06,10.18 L63.22,9.83 L61.60,9.47 L59.06,9.40 L56.60,10.11 L56.03,10.11 L54.34,9.54 L53.71,9.54ZM59.20,11.94 L60.12,11.94 L60.82,12.22 L61.31,12.85 L61.53,14.05 L61.31,15.88 L61.31,16.87 L61.17,17.50 L60.96,17.92 L60.54,18.35 L59.70,18.70 L58.85,18.63 L58.43,18.20 L58.22,17.71 L58.01,15.18 L58.08,13.14 L58.36,12.50 L58.71,12.15ZM24.56,9.90 L22.87,9.47 L21.32,9.40 L19.70,9.54 L17.66,10.18 L16.75,10.11 L15.48,9.61 L14.63,9.61 L14.35,9.76 L14.00,10.18 L14.00,10.74 L14.70,12.01 L15.06,13.49 L15.06,15.32 L14.84,17.57 L14.56,18.56 L14.00,19.75 L14.00,20.67 L14.84,22.29 L15.06,23.56 L14.84,27.43 L14.49,28.91 L14.07,29.75 L14.07,30.46 L14.49,30.74 L15.34,30.74 L16.89,29.96 L17.80,29.96 L19.35,30.67 L20.76,30.88 L22.17,30.88 L24.14,30.53 L25.48,29.75 L25.90,29.33 L26.25,28.70 L26.60,27.22 L27.31,25.53 L27.31,24.47 L26.39,22.15 L25.48,20.60 L25.41,19.96 L26.25,18.35 L26.88,16.30 L27.17,15.74 L27.24,14.54 L26.81,13.63 L26.53,12.50 L26.04,11.23 L25.19,10.25ZM19.98,21.23 L20.90,21.23 L21.89,21.65 L22.66,22.57 L23.01,23.49 L23.08,25.88 L22.80,27.15 L22.31,28.06 L21.74,28.55 L21.25,28.70 L20.55,28.63 L19.98,28.34 L19.56,27.92 L19.14,26.86 L18.86,23.84 L18.86,22.43 L19.14,21.80 L19.49,21.44ZM21.53,11.87 L22.10,12.08 L22.45,12.36 L22.94,13.06 L23.15,14.19 L23.01,15.74 L22.66,16.94 L22.17,17.99 L21.74,18.42 L20.83,18.77 L19.98,18.77 L19.28,18.20 L19.07,17.71 L18.93,16.30 L18.93,13.49 L19.21,12.71 L19.84,12.08 L20.55,11.87ZM145.03,9.19 L143.48,9.54 L142.07,10.32 L141.58,10.81 L140.74,12.29 L140.31,13.21 L140.17,13.84 L140.10,16.51 L139.96,17.71 L139.61,18.91 L139.19,19.89 L139.19,20.67 L140.10,22.85 L140.17,26.44 L140.31,27.29 L141.51,29.54 L142.57,30.60 L143.27,30.95 L145.10,31.58 L146.44,31.65 L147.64,31.37 L149.47,30.53 L150.10,29.96 L150.87,28.91 L151.30,27.99 L151.37,25.67 L151.79,23.63 L151.79,22.99 L151.44,22.50 L151.09,22.36 L150.52,22.36 L149.54,22.64 L148.76,22.64 L148.34,22.50 L147.49,22.50 L147.21,22.64 L147.00,22.92 L147.00,23.77 L147.42,24.68 L147.64,25.46 L147.64,27.01 L147.42,27.99 L147.00,28.63 L146.30,29.05 L145.52,28.98 L144.82,28.41 L144.26,27.08 L144.11,26.09 L144.19,22.85 L144.47,22.01 L145.17,20.60 L145.17,19.61 L144.68,18.13 L144.33,16.02 L144.11,15.39 L144.11,13.63 L144.47,12.57 L144.89,12.08 L145.38,11.80 L145.80,11.66 L146.44,11.66 L146.93,11.94 L147.35,12.36 L147.56,12.78 L147.71,13.42 L147.56,14.82 L146.58,17.08 L146.58,17.64 L146.86,17.99 L147.92,18.06 L148.48,17.85 L149.33,17.71 L150.66,18.06 L151.44,18.06 L151.79,17.71 L151.79,17.01 L151.51,15.67 L151.51,14.26 L151.30,12.43 L150.94,11.52 L150.45,10.81 L149.82,10.18 L149.18,9.76 L148.06,9.33 L147.35,9.19ZM115.18,8.42 L112.92,8.35 L112.29,8.49 L109.61,9.54 L108.77,10.11 L108.14,10.74 L107.22,12.08 L106.94,13.21 L106.94,14.26 L107.43,15.60 L107.43,16.23 L106.80,16.94 L105.67,17.64 L104.47,19.05 L103.56,21.02 L103.35,22.15 L102.43,23.91 L102.43,24.89 L102.71,25.46 L103.84,27.01 L104.47,28.13 L105.60,29.40 L107.43,30.60 L109.26,31.16 L110.25,31.58 L112.92,31.65 L113.98,31.51 L116.59,30.60 L117.78,29.82 L118.63,28.98 L119.47,27.78 L120.04,26.72 L120.32,25.88 L120.46,24.05 L120.25,22.99 L119.68,21.37 L119.68,20.88 L119.82,20.53 L120.25,20.11 L120.67,19.89 L122.50,19.47 L123.34,19.05 L124.19,18.27 L124.75,17.15 L124.68,15.74 L124.40,14.54 L124.40,13.63 L124.26,13.14 L123.98,12.85 L123.41,12.85 L123.13,12.99 L122.43,13.70 L121.87,14.05 L120.95,14.19 L120.46,14.40 L120.25,14.68 L120.25,15.32 L120.74,16.23 L120.88,17.08 L120.67,17.64 L120.32,18.06 L119.96,18.27 L119.40,18.42 L118.06,18.42 L117.01,18.63 L116.09,18.63 L114.47,18.98 L113.49,19.54 L112.92,20.11 L112.15,21.58 L112.15,22.36 L112.50,23.06 L112.92,23.49 L113.35,23.70 L113.98,23.70 L113.98,23.20 L113.84,22.85 L113.84,21.94 L113.98,21.51 L114.54,20.88 L115.39,20.46 L116.16,20.39 L116.80,20.53 L117.50,20.95 L117.99,21.44 L118.27,21.94 L118.49,22.85 L118.49,23.70 L118.27,24.61 L117.92,25.32 L117.36,26.09 L116.30,27.15 L115.81,27.50 L114.75,27.92 L113.77,28.13 L111.59,28.13 L110.11,27.85 L108.63,27.01 L108.14,26.51 L107.92,26.09 L107.85,23.63 L107.22,22.57 L106.87,21.65 L106.87,20.25 L107.01,19.68 L107.71,18.49 L108.49,17.85 L109.54,17.78 L110.25,17.99 L111.23,17.99 L111.73,17.71 L111.94,17.36 L111.94,16.73 L111.66,16.16 L111.16,15.74 L109.69,15.25 L109.12,14.68 L108.98,14.40 L108.91,13.06 L109.19,12.29 L109.69,11.59 L110.53,10.81 L112.43,9.97 L113.28,9.83 L114.90,9.97 L115.81,10.46 L116.51,11.30 L116.66,11.73 L116.66,12.22 L116.51,12.57 L115.81,13.14 L114.97,13.14 L113.91,12.36 L113.28,12.36 L111.73,13.77 L111.73,14.47 L111.87,14.61 L114.61,15.46 L115.11,15.53 L116.30,15.46 L116.80,15.32 L117.99,14.61 L118.70,13.70 L118.98,12.71 L118.98,12.15 L118.70,11.02 L118.42,10.39 L117.71,9.61 L116.09,8.70Z" fill="#173a17" transform="translate(0.6,0.9)" fill-rule="evenodd"/><path d="M211.43,9.69 L211.14,10.04 L211.14,10.81 L212.06,12.43 L212.20,13.06 L212.20,14.82 L211.99,17.71 L211.71,18.63 L211.14,19.75 L211.14,20.74 L212.06,22.50 L212.20,23.63 L212.20,24.68 L211.99,27.78 L211.71,28.70 L211.14,29.82 L211.14,30.46 L211.50,30.74 L212.20,30.74 L212.90,30.53 L213.61,30.10 L214.10,29.96 L214.66,30.03 L215.65,30.60 L216.21,30.74 L216.78,30.74 L217.20,30.46 L217.20,29.75 L216.71,28.84 L216.35,27.36 L216.07,23.56 L216.14,21.80 L216.49,21.23 L216.78,21.09 L217.13,21.09 L217.76,21.65 L220.51,25.53 L221.00,26.65 L221.07,27.01 L221.00,27.71 L220.58,28.84 L220.09,29.75 L220.09,30.39 L220.58,30.74 L221.21,30.74 L221.71,30.60 L222.41,30.17 L223.18,30.03 L224.73,30.60 L225.79,30.53 L225.93,30.39 L225.93,29.54 L225.44,28.48 L225.08,27.15 L224.94,23.63 L225.16,22.29 L225.86,21.02 L226.00,20.53 L225.93,19.68 L225.16,17.50 L225.01,16.16 L225.01,12.99 L225.23,12.15 L225.93,10.81 L225.86,9.90 L225.51,9.69 L224.66,9.69 L223.54,10.11 L222.83,10.11 L221.56,9.61 L220.65,9.61 L220.44,9.69 L220.09,10.04 L220.09,10.88 L221.00,12.64 L221.21,13.42 L221.14,16.09 L220.93,18.13 L220.72,18.77 L220.37,19.05 L220.09,19.05 L219.45,18.56 L218.54,17.36 L216.35,13.98 L216.21,13.56 L216.21,12.57 L216.42,11.94 L217.06,10.81 L216.99,9.90 L216.49,9.61 L215.72,9.61 L214.88,10.04 L214.24,10.18 L212.55,9.61ZM199.60,9.61 L199.17,9.83 L199.03,10.04 L198.96,10.67 L199.88,12.43 L200.09,13.56 L200.09,14.75 L199.88,17.15 L199.60,18.42 L198.96,19.82 L198.96,20.60 L199.74,22.08 L199.95,22.85 L200.09,23.98 L200.09,25.81 L199.67,28.34 L198.96,29.75 L198.96,30.24 L199.17,30.53 L199.46,30.67 L200.44,30.67 L201.71,30.03 L202.34,30.03 L203.47,30.60 L204.53,30.67 L204.95,30.31 L204.95,29.68 L204.45,28.48 L204.17,27.08 L204.03,25.39 L204.03,23.13 L204.31,21.94 L204.95,20.53 L204.95,19.89 L204.38,18.35 L204.24,17.64 L203.96,13.84 L204.24,12.15 L204.95,10.88 L204.95,10.18 L204.45,9.69 L203.47,9.69 L202.55,10.04 L202.06,10.11 L200.37,9.61ZM72.93,9.76 L72.51,10.25 L72.51,10.74 L73.28,11.87 L73.64,12.71 L73.85,13.77 L73.85,15.88 L73.57,17.50 L72.65,19.54 L72.65,20.25 L73.64,22.22 L73.78,23.20 L73.78,26.44 L73.21,28.77 L72.44,30.31 L72.44,30.95 L72.58,31.23 L72.86,31.44 L73.64,31.44 L75.47,30.46 L75.82,30.39 L76.52,30.53 L77.44,31.09 L78.28,31.44 L78.85,31.44 L79.20,31.16 L79.27,30.53 L78.56,29.12 L78.07,27.57 L77.79,24.82 L77.79,23.06 L78.00,22.15 L78.49,21.58 L79.27,21.30 L80.25,21.37 L80.89,21.73 L81.45,22.50 L81.59,23.49 L81.59,25.25 L81.73,26.02 L82.86,29.68 L83.28,30.46 L83.99,31.09 L84.55,31.09 L85.46,30.53 L86.17,30.46 L87.79,31.51 L88.63,31.51 L88.77,31.37 L88.77,30.67 L87.58,29.26 L86.59,27.29 L86.38,26.23 L86.24,24.19 L85.96,22.99 L85.54,22.22 L84.34,21.16 L83.99,20.39 L84.06,20.04 L85.32,18.63 L85.96,17.43 L86.10,16.80 L86.24,14.33 L86.52,13.21 L87.22,11.94 L88.56,10.60 L88.63,9.90 L88.14,9.61 L87.22,9.69 L86.17,10.11 L85.46,10.11 L84.55,9.76 L83.92,9.76 L83.63,9.90 L83.14,10.39 L82.79,11.02 L82.51,12.22 L81.94,13.63 L81.73,14.54 L81.66,16.02 L81.24,17.92 L80.96,18.42 L80.54,18.77 L79.97,18.98 L79.27,18.98 L78.71,18.77 L78.28,18.35 L78.07,17.92 L77.79,15.60 L77.86,13.35 L78.14,12.36 L79.13,10.81 L79.06,9.97 L78.71,9.69 L77.65,9.69 L76.24,10.32 L75.61,10.32 L73.92,9.61 L73.28,9.61ZM37.66,9.61 L37.38,9.76 L37.02,10.25 L37.02,11.02 L37.31,12.01 L37.31,13.56 L37.16,14.33 L36.46,16.30 L36.11,17.85 L35.55,19.61 L35.33,20.04 L34.98,20.39 L33.57,20.67 L33.22,21.02 L33.29,22.57 L33.50,23.06 L34.21,23.84 L34.28,24.82 L34.14,25.39 L33.01,28.06 L31.88,29.82 L31.88,30.46 L32.17,30.67 L32.73,30.67 L34.35,30.03 L35.12,30.10 L35.83,30.53 L36.67,30.53 L36.95,30.31 L37.02,29.68 L36.53,28.48 L36.39,27.64 L36.39,26.37 L36.67,24.89 L37.09,23.63 L37.59,23.06 L38.36,22.78 L39.35,22.71 L39.84,22.78 L40.47,23.06 L40.97,23.63 L41.39,24.54 L41.81,26.94 L41.74,28.27 L41.39,29.40 L41.39,30.24 L41.60,30.53 L42.16,30.74 L42.80,30.74 L43.43,30.60 L44.35,30.10 L45.12,30.10 L46.04,30.53 L46.81,30.74 L47.51,30.67 L47.87,30.39 L47.87,29.82 L46.67,27.71 L46.04,26.16 L45.54,24.47 L45.40,23.41 L45.40,22.08 L45.68,20.95 L45.61,20.11 L44.28,17.78 L43.22,13.70 L43.22,12.22 L43.50,11.23 L43.43,10.32 L43.01,9.83 L42.66,9.69 L41.74,9.69 L40.68,10.11 L39.98,10.18 L38.50,9.61ZM38.85,17.99 L39.14,17.99 L39.56,18.35 L39.77,18.70 L39.98,19.54 L39.91,20.53 L39.77,20.81 L39.35,21.09 L38.64,21.02 L38.36,20.81 L38.08,20.25 L38.08,19.26 L38.43,18.35ZM183.54,9.61 L183.05,10.04 L182.98,10.25 L182.98,10.88 L183.40,12.15 L183.40,13.28 L182.49,16.09 L182.28,17.22 L181.57,19.75 L181.01,20.46 L180.73,20.60 L179.60,20.74 L179.39,20.88 L179.25,21.16 L179.32,22.50 L179.46,22.85 L180.23,23.70 L180.38,24.05 L180.38,24.54 L179.46,27.15 L178.83,28.48 L177.91,29.82 L177.91,30.46 L178.12,30.60 L178.97,30.60 L180.09,30.10 L181.01,30.17 L181.92,30.60 L182.63,30.60 L182.98,30.39 L183.05,29.75 L182.63,28.77 L182.42,27.71 L182.42,26.30 L182.91,24.12 L183.19,23.56 L183.75,22.99 L184.25,22.78 L185.37,22.71 L185.87,22.78 L186.29,22.99 L186.99,23.70 L187.35,24.54 L187.77,26.44 L187.70,28.27 L187.35,29.61 L187.35,30.17 L187.56,30.53 L187.98,30.74 L188.97,30.74 L190.37,30.10 L191.08,30.10 L192.63,30.67 L193.54,30.67 L193.82,30.39 L193.82,29.75 L192.49,27.36 L191.36,23.49 L191.36,22.29 L191.78,20.95 L191.78,20.46 L190.09,17.29 L189.60,15.60 L189.25,13.42 L189.25,12.36 L189.39,11.52 L189.32,10.25 L189.11,9.97 L188.54,9.69 L187.63,9.76 L186.43,10.25 L185.73,10.25 L184.53,9.61 L184.25,9.54ZM184.81,18.06 L185.16,18.06 L185.44,18.35 L186.01,19.82 L186.01,20.25 L185.87,20.60 L185.52,20.95 L185.30,21.02 L184.81,21.02 L184.46,20.88 L184.11,20.39 L184.18,19.33 L184.39,18.70ZM158.06,9.69 L157.70,10.04 L157.70,10.81 L158.69,12.92 L158.83,14.90 L158.69,16.80 L158.41,17.92 L157.77,19.54 L157.70,20.74 L158.41,22.22 L158.69,23.06 L158.83,24.05 L158.83,25.46 L158.69,26.79 L157.70,29.75 L157.70,30.39 L158.20,30.74 L158.97,30.74 L160.45,30.03 L161.36,30.10 L162.28,30.60 L162.77,30.74 L163.34,30.74 L163.83,30.39 L163.83,29.61 L163.13,28.06 L162.77,26.65 L162.63,24.75 L162.70,23.20 L163.20,22.08 L163.69,21.58 L164.39,21.30 L165.38,21.23 L165.94,21.30 L166.86,21.94 L167.28,22.64 L167.49,23.49 L167.49,24.75 L167.35,25.46 L167.21,27.50 L167.00,28.34 L166.43,29.61 L166.43,30.46 L166.86,30.74 L167.56,30.74 L169.18,30.03 L169.95,30.03 L171.36,30.67 L172.35,30.60 L172.56,30.39 L172.56,29.82 L171.72,27.57 L171.50,26.51 L171.43,23.56 L171.64,22.50 L172.56,20.67 L172.56,19.89 L171.64,17.15 L171.36,14.97 L171.36,13.77 L171.50,12.92 L171.72,12.29 L172.49,10.74 L172.49,10.18 L172.35,9.90 L171.86,9.61 L171.36,9.61 L170.03,10.18 L169.32,10.18 L167.91,9.61 L167.00,9.54 L166.36,10.04 L166.43,10.88 L167.14,12.15 L167.42,13.14 L167.49,14.82 L167.28,15.95 L167.21,17.29 L167.07,17.78 L166.36,18.56 L165.66,18.84 L164.96,18.91 L164.46,18.84 L163.83,18.56 L163.20,17.92 L162.98,17.50 L162.77,16.59 L162.70,13.06 L163.83,10.81 L163.83,10.04 L163.69,9.83 L163.41,9.61 L162.56,9.61 L161.22,10.11 L160.59,10.18 L159.04,9.54 L158.34,9.54ZM53.36,9.69 L53.01,10.18 L53.01,10.67 L53.92,12.57 L54.13,14.47 L53.85,17.22 L53.01,19.75 L53.01,20.53 L53.92,22.85 L53.99,26.02 L53.71,27.92 L53.08,29.61 L53.08,30.31 L53.50,30.67 L54.48,30.67 L55.75,30.10 L56.39,30.10 L57.65,30.67 L58.50,30.67 L58.99,30.31 L58.99,29.75 L58.43,28.27 L58.22,27.22 L57.93,22.50 L58.08,21.94 L58.43,21.44 L59.06,21.09 L59.77,21.02 L60.33,21.16 L60.68,21.37 L61.03,21.73 L61.24,22.15 L61.74,24.12 L61.74,25.74 L61.95,27.85 L62.30,28.91 L62.79,29.75 L63.57,30.53 L64.91,31.02 L66.03,30.95 L66.95,30.60 L67.23,30.24 L67.23,29.61 L66.67,28.48 L66.38,27.50 L65.68,22.43 L65.40,21.65 L64.62,20.74 L64.34,20.11 L64.34,19.68 L64.48,19.26 L65.33,17.71 L65.61,16.80 L66.17,15.53 L66.17,14.54 L65.68,13.21 L65.47,12.08 L65.19,11.52 L64.48,10.53 L64.06,10.18 L63.22,9.83 L61.60,9.47 L59.06,9.40 L56.60,10.11 L56.03,10.11 L54.34,9.54 L53.71,9.54ZM59.20,11.94 L60.12,11.94 L60.82,12.22 L61.31,12.85 L61.53,14.05 L61.31,15.88 L61.31,16.87 L61.17,17.50 L60.96,17.92 L60.54,18.35 L59.70,18.70 L58.85,18.63 L58.43,18.20 L58.22,17.71 L58.01,15.18 L58.08,13.14 L58.36,12.50 L58.71,12.15ZM24.56,9.90 L22.87,9.47 L21.32,9.40 L19.70,9.54 L17.66,10.18 L16.75,10.11 L15.48,9.61 L14.63,9.61 L14.35,9.76 L14.00,10.18 L14.00,10.74 L14.70,12.01 L15.06,13.49 L15.06,15.32 L14.84,17.57 L14.56,18.56 L14.00,19.75 L14.00,20.67 L14.84,22.29 L15.06,23.56 L14.84,27.43 L14.49,28.91 L14.07,29.75 L14.07,30.46 L14.49,30.74 L15.34,30.74 L16.89,29.96 L17.80,29.96 L19.35,30.67 L20.76,30.88 L22.17,30.88 L24.14,30.53 L25.48,29.75 L25.90,29.33 L26.25,28.70 L26.60,27.22 L27.31,25.53 L27.31,24.47 L26.39,22.15 L25.48,20.60 L25.41,19.96 L26.25,18.35 L26.88,16.30 L27.17,15.74 L27.24,14.54 L26.81,13.63 L26.53,12.50 L26.04,11.23 L25.19,10.25ZM19.98,21.23 L20.90,21.23 L21.89,21.65 L22.66,22.57 L23.01,23.49 L23.08,25.88 L22.80,27.15 L22.31,28.06 L21.74,28.55 L21.25,28.70 L20.55,28.63 L19.98,28.34 L19.56,27.92 L19.14,26.86 L18.86,23.84 L18.86,22.43 L19.14,21.80 L19.49,21.44ZM21.53,11.87 L22.10,12.08 L22.45,12.36 L22.94,13.06 L23.15,14.19 L23.01,15.74 L22.66,16.94 L22.17,17.99 L21.74,18.42 L20.83,18.77 L19.98,18.77 L19.28,18.20 L19.07,17.71 L18.93,16.30 L18.93,13.49 L19.21,12.71 L19.84,12.08 L20.55,11.87ZM145.03,9.19 L143.48,9.54 L142.07,10.32 L141.58,10.81 L140.74,12.29 L140.31,13.21 L140.17,13.84 L140.10,16.51 L139.96,17.71 L139.61,18.91 L139.19,19.89 L139.19,20.67 L140.10,22.85 L140.17,26.44 L140.31,27.29 L141.51,29.54 L142.57,30.60 L143.27,30.95 L145.10,31.58 L146.44,31.65 L147.64,31.37 L149.47,30.53 L150.10,29.96 L150.87,28.91 L151.30,27.99 L151.37,25.67 L151.79,23.63 L151.79,22.99 L151.44,22.50 L151.09,22.36 L150.52,22.36 L149.54,22.64 L148.76,22.64 L148.34,22.50 L147.49,22.50 L147.21,22.64 L147.00,22.92 L147.00,23.77 L147.42,24.68 L147.64,25.46 L147.64,27.01 L147.42,27.99 L147.00,28.63 L146.30,29.05 L145.52,28.98 L144.82,28.41 L144.26,27.08 L144.11,26.09 L144.19,22.85 L144.47,22.01 L145.17,20.60 L145.17,19.61 L144.68,18.13 L144.33,16.02 L144.11,15.39 L144.11,13.63 L144.47,12.57 L144.89,12.08 L145.38,11.80 L145.80,11.66 L146.44,11.66 L146.93,11.94 L147.35,12.36 L147.56,12.78 L147.71,13.42 L147.56,14.82 L146.58,17.08 L146.58,17.64 L146.86,17.99 L147.92,18.06 L148.48,17.85 L149.33,17.71 L150.66,18.06 L151.44,18.06 L151.79,17.71 L151.79,17.01 L151.51,15.67 L151.51,14.26 L151.30,12.43 L150.94,11.52 L150.45,10.81 L149.82,10.18 L149.18,9.76 L148.06,9.33 L147.35,9.19ZM115.18,8.42 L112.92,8.35 L112.29,8.49 L109.61,9.54 L108.77,10.11 L108.14,10.74 L107.22,12.08 L106.94,13.21 L106.94,14.26 L107.43,15.60 L107.43,16.23 L106.80,16.94 L105.67,17.64 L104.47,19.05 L103.56,21.02 L103.35,22.15 L102.43,23.91 L102.43,24.89 L102.71,25.46 L103.84,27.01 L104.47,28.13 L105.60,29.40 L107.43,30.60 L109.26,31.16 L110.25,31.58 L112.92,31.65 L113.98,31.51 L116.59,30.60 L117.78,29.82 L118.63,28.98 L119.47,27.78 L120.04,26.72 L120.32,25.88 L120.46,24.05 L120.25,22.99 L119.68,21.37 L119.68,20.88 L119.82,20.53 L120.25,20.11 L120.67,19.89 L122.50,19.47 L123.34,19.05 L124.19,18.27 L124.75,17.15 L124.68,15.74 L124.40,14.54 L124.40,13.63 L124.26,13.14 L123.98,12.85 L123.41,12.85 L123.13,12.99 L122.43,13.70 L121.87,14.05 L120.95,14.19 L120.46,14.40 L120.25,14.68 L120.25,15.32 L120.74,16.23 L120.88,17.08 L120.67,17.64 L120.32,18.06 L119.96,18.27 L119.40,18.42 L118.06,18.42 L117.01,18.63 L116.09,18.63 L114.47,18.98 L113.49,19.54 L112.92,20.11 L112.15,21.58 L112.15,22.36 L112.50,23.06 L112.92,23.49 L113.35,23.70 L113.98,23.70 L113.98,23.20 L113.84,22.85 L113.84,21.94 L113.98,21.51 L114.54,20.88 L115.39,20.46 L116.16,20.39 L116.80,20.53 L117.50,20.95 L117.99,21.44 L118.27,21.94 L118.49,22.85 L118.49,23.70 L118.27,24.61 L117.92,25.32 L117.36,26.09 L116.30,27.15 L115.81,27.50 L114.75,27.92 L113.77,28.13 L111.59,28.13 L110.11,27.85 L108.63,27.01 L108.14,26.51 L107.92,26.09 L107.85,23.63 L107.22,22.57 L106.87,21.65 L106.87,20.25 L107.01,19.68 L107.71,18.49 L108.49,17.85 L109.54,17.78 L110.25,17.99 L111.23,17.99 L111.73,17.71 L111.94,17.36 L111.94,16.73 L111.66,16.16 L111.16,15.74 L109.69,15.25 L109.12,14.68 L108.98,14.40 L108.91,13.06 L109.19,12.29 L109.69,11.59 L110.53,10.81 L112.43,9.97 L113.28,9.83 L114.90,9.97 L115.81,10.46 L116.51,11.30 L116.66,11.73 L116.66,12.22 L116.51,12.57 L115.81,13.14 L114.97,13.14 L113.91,12.36 L113.28,12.36 L111.73,13.77 L111.73,14.47 L111.87,14.61 L114.61,15.46 L115.11,15.53 L116.30,15.46 L116.80,15.32 L117.99,14.61 L118.70,13.70 L118.98,12.71 L118.98,12.15 L118.70,11.02 L118.42,10.39 L117.71,9.61 L116.09,8.70Z" fill="#ffffff" fill-rule="evenodd"/></svg>